# xmcd
#
# Track frame offsets:
#	182
#	14982
#	27657
#	40442
#	57120
#	74320
#	89587
#	106757
#	124440
#	140730
#	154922
#	173320
#	185577
#	202442
#	215170
#
# Disc length: 3052 seconds
#
# Revision: 1
# Processed by: cddbd v1.4PL0 Copyright (c) Steve Scherf et al.
# Submitted via: EasyCDDAExtractor 5.0.7
#
DISCID=f10bea0f
DTITLE=Right Said Fred - Fredhead
DYEAR=1900
DGENRE=
TTITLE0=You're My Mate
TTITLE1=Mojive
TTITLE2=Angel Dust
TTITLE3=Funk You
TTITLE4=I Know What Love Is
TTITLE5=Lap Dance Junkie
TTITLE6=Lover.com
TTITLE7=Bring Your Smile
TTITLE8=Like A Woman
TTITLE9=Jamaica Jerk
TTITLE10=The Sun Changes Everything
TTITLE11=Insatiable You
TTITLE12=Love Song
TTITLE13=Mojive(Ac-Koma/Blue PM Video Mix)
TTITLE14=Don't Talk Just Kiss
EXTD=
EXTT0=
EXTT1=
EXTT2=
EXTT3=
EXTT4=
EXTT5=
EXTT6=
EXTT7=
EXTT8=
EXTT9=
EXTT10=
EXTT11=
EXTT12=
EXTT13=
EXTT14=
PLAYORDER=
